<?xml version="1.0" encoding="UTF-8" standalone="no"?>
<svg
   xmlns:dc="http://purl.org/dc/elements/1.1/"
   xmlns:cc="http://creativecommons.org/ns#"
   xmlns:rdf="http://www.w3.org/1999/02/22-rdf-syntax-ns#"
   xmlns:svg="http://www.w3.org/2000/svg"
   xmlns="http://www.w3.org/2000/svg"
   height="1500"
   width="2150"
   version="1.0"
   id="svg5097">
  <defs
     id="defs5101" />
  <metadata
     id="metadata5091">
Created by potrace 1.15, written by Peter Selinger 2001-2017
<rdf:RDF>
  <cc:Work
     rdf:about="">
    <dc:format>image/svg+xml</dc:format>
    <dc:type
       rdf:resource="http://purl.org/dc/dcmitype/StillImage" />
    <dc:title></dc:title>
  </cc:Work>
</rdf:RDF>
</metadata>
  <rect
     style="opacity:1;fill:#cccccc;fill-opacity:1;stroke:none;stroke-width:0.75"
     id="rect5648"
     width="2150"
     height="1500"
     x="0"
     y="0" />
  <path
     style="fill:#000000;stroke:none;stroke-width:0.1"
     id="path5093"
     d="m 109.18523,65.056821 c -30.399999,4.4 -54.999999,29.5 -58.999999,59.999999 -0.8,6.8 -1,164.5 -0.8,635 l 0.3,625.99998 3.1,8.8 c 4,11.1 8.4,18.4 15.8,26.4 7.4,8 17.6,14.7 28.6,18.7 l 8.499999,3.1 h 953.49997 953.5 l 8.8,-3.2 c 27.2,-9.9 43.8,-30.3 47.6,-58.3 0.8,-6.1 1.1,-175 1.1,-627.89998 -0.1,-520.9 -0.3,-621.1 -1.4,-629.1 -4.6,-31.099999 -28.5,-55.099999 -59.6,-59.599999 -13.4,-1.9 -1886.69997,-1.9 -1899.99997,0.1 z m 1755.79997,688.199999 -0.3,485.79998 -805.7,0.3 -805.79997,0.2 v -485.99998 -486 h 805.99997 806 z" />
  <rect
     style="opacity:1;fill:#4d4d4d;fill-opacity:1;stroke-width:0.75"
     id="display"
     width="1611.4999"
     height="971.49994"
     x="253.18524"
     y="267.55682" />
  <circle
     style="opacity:1;fill:#666666;fill-opacity:1;stroke-width:0.75"
     id="path6233"
     cx="1932.1492"
     cy="321.2644"
     r="16.517189" />
  <circle
     r="16.517189"
     cy="1104.48599"
     cx="1932.1492"
     id="circle6235"
     style="opacity:1;fill:#ff0000;fill-opacity:1;stroke-width:0.75" />
  <circle
     style="opacity:1;fill:#00ff00;fill-opacity:1;stroke-width:0.75"
     id="circle6237"
     cx="1932.1492"
     cy="1204.95514"
     r="16.517189" />
</svg>
